<svg xmlns="http://www.w3.org/2000/svg" viewBox="0 0 1067.35 260.51"><defs><style>.cls-1{font-size:193.12px;font-family:NEWSPAPERPERSONALUSE-Semiexpand, NEWSPAPER PERSONAL USE;}.cls-2{letter-spacing:-0.03em;}.cls-3{letter-spacing:-0.04em;}.cls-4{letter-spacing:0em;}.cls-5{letter-spacing:-0.02em;}.cls-6{letter-spacing:0em;}</style></defs><g id="Layer_2" data-name="Layer 2"><g id="Layer_1-2" data-name="Layer 1"><path d="M198.37,245h-3.51c-.31-.63-.46-3.43-.54-8.71-1.95,3.73-6.24,9.33-17.62,9.33C161,245.58,153,233.68,153,218.2c0-16.25,8.57-28.46,24.55-28.46,11.77,0,19.56,6.14,21.28,16.17h-4.21c-2.34-7.7-7.72-12.29-17.23-12.29-13.64,0-19.87,10.58-19.87,24.35,0,12.44,6,23.72,19.33,23.72,13.64,0,17.46-8.87,17.46-20.92v-.62H176.7v-3.89h21.67Z"/><path d="M223.54,216.65c0-6.54-.07-9.34-.07-10.58h3.82c.08,1.24.15,3.73.15,8.71A14.76,14.76,0,0,1,241,205.14v4.2c-8.1.54-13.56,6.14-13.56,15.39V245h-3.9Z"/><path d="M286.68,237.57a45.07,45.07,0,0,0,.54,7.39h-3.74a26,26,0,0,1-.7-6c-1.32,2.87-4.75,6.92-12.78,6.92-9,0-12.94-5.83-12.94-11.67,0-8.55,6.63-12.44,18.32-12.44h7.4v-4c0-3.89-1.17-9.1-10-9.1-7.88,0-9,4.12-9.9,7.31h-3.9c.47-4.27,3.12-10.88,13.87-10.88,8.89,0,13.88,3.73,13.88,12.28Zm-3.82-12.45h-7.64c-8.65,0-14,2.26-14,8.95,0,4.9,3.51,8.24,9,8.24,11.15,0,12.71-7.39,12.71-15.79Z"/><path d="M315.91,239.2v21.31H312V215.63c0-3.18,0-6.61-.08-9.56h3.82c.16,1.48.16,3.81.16,7,2.41-4.67,6.7-7.93,13.71-7.93,9.2,0,15.59,7.69,15.59,19.36,0,14-7.48,21.39-16.91,21.39C321.44,245.89,317.85,242.86,315.91,239.2Zm25.17-14.54c0-9-4.36-15.79-12.08-15.79-9.43,0-13.33,5.91-13.33,16.49,0,10.42,3,16.87,12.79,16.87C336.56,242.23,341.08,235.39,341.08,224.66Z"/><path d="M371.32,187.64v25c2.18-4,6-7.46,12.86-7.46,5.54,0,13.18,2.8,13.18,15.08V245h-3.9V221c0-7.7-3.51-12.05-10-12.05-7.71,0-12.16,4.74-12.16,14.31V245h-3.89V187.64Z"/><path d="M422.61,187.64h3.89v7.54h-3.89Zm0,18.43h3.89V245h-3.89Z"/><path d="M480.44,233.52c-1.87,6.85-6.39,12.37-15.12,12.37-9.74,0-16.68-7.23-16.68-20.22,0-10.66,5.69-20.53,17.15-20.53,9.9,0,13.95,7,14.65,12.44h-4c-1.16-4.51-4.13-8.79-10.75-8.79-8.26,0-12.94,7-12.94,16.72,0,9.26,4.36,16.72,12.55,16.72,5.69,0,9.12-2.87,11.14-8.71Z"/><path d="M536.32,230.33c1.64,7.24,6.47,11.51,15.44,11.51,10,0,13.79-5,13.79-10.88,0-6.15-2.73-10-14.73-12.91-11.53-2.88-16.52-6.61-16.52-14.47,0-7.16,5.22-13.84,16.91-13.84,12,0,17.07,7.31,17.77,13.92h-4.36c-1.25-5.83-5.07-10-13.64-10-7.87,0-12.16,3.66-12.16,9.73s3.58,8.32,13.64,10.81c15.35,3.81,17.61,10,17.61,16.49,0,8-5.84,14.93-18.47,14.93-13.64,0-18.63-7.93-19.64-15.25Z"/><path d="M624.79,225.43c0,10.82-6,20.46-17.62,20.46-10.52,0-17.07-8.63-17.07-20.38,0-11.12,6.16-20.37,17.46-20.37C617.93,205.14,624.79,213.22,624.79,225.43Zm-30.56.08c0,9.26,5,16.72,13.25,16.72,8.42,0,13.18-6.92,13.18-16.72,0-9.18-4.68-16.72-13.33-16.72C598.44,208.79,594.23,216.18,594.23,225.51Z"/><path d="M646.92,245V187.64h3.9V245Z"/><path d="M705.22,233.6c0,3.81.08,9.88.08,11.36h-3.74a61.65,61.65,0,0,1-.23-6.77c-1.64,4.59-5.62,7.7-12.55,7.7-5.61,0-12.79-2.18-12.79-14.08V206.07h3.82v24.81c0,5.68,1.8,11.2,9.51,11.2,8.73,0,12-4.9,12-16v-20h3.89Z"/><path d="M725.56,206.07h7.25V193.94h3.9v12.13H746v3.65h-9.28V235c0,4.36.94,6.84,4.68,6.84a14.7,14.7,0,0,0,4.05-.46v3.42a13.84,13.84,0,0,1-4.83.7c-5,0-7.8-2.49-7.8-8.71V209.72h-7.25Z"/><path d="M766.41,187.64h3.89v7.54h-3.89Zm0,18.43h3.89V245h-3.89Z"/><path d="M827.12,225.43c0,10.82-6,20.46-17.61,20.46-10.53,0-17.07-8.63-17.07-20.38,0-11.12,6.15-20.37,17.46-20.37C820.26,205.14,827.12,213.22,827.12,225.43Zm-30.55.08c0,9.26,5,16.72,13.25,16.72,8.42,0,13.17-6.92,13.17-16.72,0-9.18-4.68-16.72-13.33-16.72C800.78,208.79,796.57,216.18,796.57,225.51Z"/><path d="M849.26,215.87c0-3.42,0-6.69-.08-9.8H853c.15,1.24.23,6.3.15,7.39,1.72-4,4.91-8.32,12.94-8.32,6.94,0,13.1,3.88,13.1,14.62V245h-3.9V220.38c0-6.92-2.88-11.43-9.67-11.43-9.27,0-12.47,7.7-12.47,16.17V245h-3.89Z"/><path d="M904.21,234.22c1.32,5.06,4.91,8.09,11.06,8.09,6.94,0,9.75-3.19,9.75-7.54s-1.87-6.61-10.6-8.71c-10.06-2.41-12.55-5.45-12.55-10.58,0-5.37,4-10.34,12.86-10.34s13,5.36,13.64,10.88h-3.9c-.7-3.26-3.27-7.31-9.9-7.31-6.78,0-8.73,3.35-8.73,6.46,0,3.58,1.87,5.37,9.59,7.23,11,2.65,13.72,6.22,13.72,12.06,0,7.07-5.77,11.43-13.95,11.43-8.89,0-13.88-4.67-15-11.67Z"/><text class="cls-1" transform="translate(0 137.16)">b<tspan class="cls-2" x="103.73" y="0">e</tspan><tspan x="209.72" y="0">t</tspan><tspan class="cls-3" x="281.76" y="0">t</tspan><tspan class="cls-4" x="347.01" y="0">er </tspan><tspan class="cls-5" x="594.17" y="0">d</tspan><tspan class="cls-6" x="694.88" y="0">emo</tspan></text></g></g></svg>