<svg xmlns="http://www.w3.org/2000/svg" viewBox="0 0 165.13 205.8"><defs><style>.cls-1{fill:#ffda00;}</style></defs><g id="Layer_2" data-name="Layer 2"><g id="Layer_1-2" data-name="Layer 1"><path class="cls-1" d="M160.17,115.64a57.73,57.73,0,0,0-24.3-25.26,110.83,110.83,0,0,0-29.06-10.8C127.08,75,148.67,64.94,148.67,43c0-37.55-48.41-42-68-42.75C75.61.05,70.51,0,65.4,0L20.64.12V17.54q0,.34,0,.69L21.11,104C47.55,90.09,72,97.52,72,97.52L71.64,92h0V73h0V17.53a14.6,14.6,0,0,1,.26-3C73.19,8.23,78,5.68,87.67,8.16q16.45,4.47,17.57,25a56.21,56.21,0,0,1-4.29,24c-6.1,15.11-14.17,21.28-23.31,22.55v4.15c28.17,3.82,39.58,25.85,40.2,59.59a71.74,71.74,0,0,1-5.07,28.4c-6.48,15.95-17.22,25.85-32.7,29a38.75,38.75,0,0,1-24.83-3.12C45,192.75,38.67,184.49,38.67,168c0-28,46-41,47-9,17.23-6.5,17.8-23.5,7.09-38-9.56-12.94-25.38-19.57-41.43-18.42a62.47,62.47,0,0,0-17.67,3.87C13.8,114,0,132.62,0,153.86c0,16.2,8,26.82,19.5,35.09,10.92,7.87,23.93,12.62,37.17,15,31.59,5.76,56.45-2.85,77.51-15.93a66.3,66.3,0,0,0,26.87-31.34C167,141.92,166.24,128.31,160.17,115.64Z"/></g></g></svg>